REM DIRINDEX 1\3,1\4,1\5,1\6,1\2\7,1\2\8,1\2\9,1\10
REM DIRNAME folder01,folder02,folder03,folder04,folder05,folder06,folder07,folder08,folder09,folder10
TITLE ""
FILE "2-44 Level 6-907-916.mp3" MP3
  TRACK 01 AUDIO
    TITLE "0:"
    INDEX 01 00:00:00
  TRACK 02 AUDIO
    TITLE "7:cjc056_3123"
    INDEX 01 00:00:09
  TRACK 03 AUDIO
    TITLE "0:"
    INDEX 01 00:01:24
  TRACK 04 AUDIO
    TITLE "8:cjc056_3124"
    INDEX 01 00:01:36
  TRACK 05 AUDIO
    TITLE "0:"
    INDEX 01 00:02:53
  TRACK 06 AUDIO
    TITLE "9:cjc056_3125"
    INDEX 01 00:02:69
  TRACK 07 AUDIO
    TITLE "0:"
    INDEX 01 00:05:67
  TRACK 08 AUDIO
    TITLE "7:cjc056_3126"
    INDEX 01 00:06:41
  TRACK 09 AUDIO
    TITLE "0:"
    INDEX 01 00:07:58
  TRACK 10 AUDIO
    TITLE "8:cjc056_3127"
    INDEX 01 00:07:74
  TRACK 11 AUDIO
    TITLE "0:"
    INDEX 01 00:09:20
  TRACK 12 AUDIO
    TITLE "9:cjc056_3128"
    INDEX 01 00:09:34
  TRACK 13 AUDIO
    TITLE "0:"
    INDEX 01 00:12:09
  TRACK 14 AUDIO
    TITLE "7:cjc056_3129"
    INDEX 01 00:12:60
  TRACK 15 AUDIO
    TITLE "0:"
    INDEX 01 00:13:71
  TRACK 16 AUDIO
    TITLE "8:cjc056_3130"
    INDEX 01 00:14:09
  TRACK 17 AUDIO
    TITLE "0:"
    INDEX 01 00:15:19
  TRACK 18 AUDIO
    TITLE "9:cjc056_3131"
    INDEX 01 00:15:30
  TRACK 19 AUDIO
    TITLE "0:"
    INDEX 01 00:18:62
  TRACK 20 AUDIO
    TITLE "7:cjc056_3132"
    INDEX 01 00:19:38
  TRACK 21 AUDIO
    TITLE "0:"
    INDEX 01 00:20:41
  TRACK 22 AUDIO
    TITLE "8:cjc056_3133"
    INDEX 01 00:20:53
  TRACK 23 AUDIO
    TITLE "0:"
    INDEX 01 00:22:32
  TRACK 24 AUDIO
    TITLE "9:cjc056_3134"
    INDEX 01 00:22:46
  TRACK 25 AUDIO
    TITLE "0:"
    INDEX 01 00:25:33
  TRACK 26 AUDIO
    TITLE "7:cjc056_3135"
    INDEX 01 00:26:09
  TRACK 27 AUDIO
    TITLE "0:"
    INDEX 01 00:27:10
  TRACK 28 AUDIO
    TITLE "8:cjc056_3136"
    INDEX 01 00:27:24
  TRACK 29 AUDIO
    TITLE "0:"
    INDEX 01 00:28:70
  TRACK 30 AUDIO
    TITLE "9:cjc056_3137"
    INDEX 01 00:29:09
  TRACK 31 AUDIO
    TITLE "0:"
    INDEX 01 00:32:29
  TRACK 32 AUDIO
    TITLE "7:cjc056_3138"
    INDEX 01 00:33:07
  TRACK 33 AUDIO
    TITLE "0:"
    INDEX 01 00:33:66
  TRACK 34 AUDIO
    TITLE "8:cjc056_3139"
    INDEX 01 00:34:10
  TRACK 35 AUDIO
    TITLE "0:"
    INDEX 01 00:35:64
  TRACK 36 AUDIO
    TITLE "9:cjc056_3140"
    INDEX 01 00:36:01
  TRACK 37 AUDIO
    TITLE "0:"
    INDEX 01 00:39:15
  TRACK 38 AUDIO
    TITLE "7:cjc056_3141"
    INDEX 01 00:39:68
  TRACK 39 AUDIO
    TITLE "0:"
    INDEX 01 00:40:73
  TRACK 40 AUDIO
    TITLE "8:cjc056_3142"
    INDEX 01 00:41:14
  TRACK 41 AUDIO
    TITLE "0:"
    INDEX 01 00:42:43
  TRACK 42 AUDIO
    TITLE "9:cjc056_3143"
    INDEX 01 00:42:57
  TRACK 43 AUDIO
    TITLE "0:"
    INDEX 01 00:45:18
  TRACK 44 AUDIO
    TITLE "7:cjc056_3144"
    INDEX 01 00:46:00
  TRACK 45 AUDIO
    TITLE "0:"
    INDEX 01 00:46:72
  TRACK 46 AUDIO
    TITLE "8:cjc056_3145"
    INDEX 01 00:47:11
  TRACK 47 AUDIO
    TITLE "0:"
    INDEX 01 00:48:42
  TRACK 48 AUDIO
    TITLE "9:cjc056_3146"
    INDEX 01 00:48:53
  TRACK 49 AUDIO
    TITLE "0:"
    INDEX 01 00:51:36
  TRACK 50 AUDIO
    TITLE "7:cjc056_3147"
    INDEX 01 00:52:16
  TRACK 51 AUDIO
    TITLE "0:"
    INDEX 01 00:53:35
  TRACK 52 AUDIO
    TITLE "8:cjc056_3148"
    INDEX 01 00:53:49
  TRACK 53 AUDIO
    TITLE "0:"
    INDEX 01 00:55:22
  TRACK 54 AUDIO
    TITLE "9:cjc056_3149"
    INDEX 01 00:55:30
  TRACK 55 AUDIO
    TITLE "0:"
    INDEX 01 00:58:46
  TRACK 56 AUDIO
    TITLE "7:cjc056_3150"
    INDEX 01 00:59:24
  TRACK 57 AUDIO
    TITLE "0:"
    INDEX 01 01:00:35
  TRACK 58 AUDIO
    TITLE "8:cjc056_3151"
    INDEX 01 01:00:49
  TRACK 59 AUDIO
    TITLE "0:"
    INDEX 01 01:02:38
  TRACK 60 AUDIO
    TITLE "9:cjc056_3152"
    INDEX 01 01:02:48
  TRACK 61 AUDIO
    TITLE "0:"
    INDEX 01 01:07:19
